<?xml version="1.0" encoding="UTF-8"?>
<!DOCTYPE svg PUBLIC "-//W3C//DTD SVG 1.1//EN" "http://www.w3.org/Graphics/SVG/1.1/DTD/svg11.dtd">
<svg xmlns="http://www.w3.org/2000/svg" version="1.1" width="1319px" height="1317px" style="shape-rendering:geometricPrecision; text-rendering:geometricPrecision; image-rendering:optimizeQuality; fill-rule:evenodd; clip-rule:evenodd" xmlns:xlink="http://www.w3.org/1999/xlink">
<g><path style="opacity:1" fill="#224539" d="M 463.5,26.5 C 522.5,26.5 581.5,26.5 640.5,26.5C 640.5,72.5 640.5,118.5 640.5,164.5C 640.833,197.507 640.5,230.507 639.5,263.5C 610.148,278.214 600.648,301.214 611,332.5C 623.82,356.325 643.654,365.825 670.5,361C 694.963,352.861 707.63,335.861 708.5,310C 706.96,287.474 695.793,271.974 675,263.5C 674.5,205.501 674.333,147.501 674.5,89.5C 675.497,68.6733 675.831,47.6733 675.5,26.5C 778.833,26.5 882.167,26.5 985.5,26.5C 1022.83,26.3333 1060.17,26.5 1097.5,27C 1142.05,30.9578 1181.05,47.4578 1214.5,76.5C 1214.97,77.9063 1215.97,78.573 1217.5,78.5C 1220.17,80.5 1222.5,82.8333 1224.5,85.5C 1225.5,87.1667 1226.83,88.5 1228.5,89.5C 1230.83,91.1667 1232.83,93.1667 1234.5,95.5C 1235.42,98.0892 1237.09,100.089 1239.5,101.5C 1259.15,123.788 1272.82,149.455 1280.5,178.5C 1280.41,181.152 1281.08,183.485 1282.5,185.5C 1284.26,189.547 1285.26,193.88 1285.5,198.5C 1285.38,204.069 1286.04,209.402 1287.5,214.5C 1288.3,233.489 1288.64,252.489 1288.5,271.5C 1250.17,271.333 1211.83,271.5 1173.5,272C 1172.17,272.667 1170.83,273.333 1169.5,274C 1108.39,333.11 1047.89,392.944 988,453.5C 962.523,442.12 940.856,447.12 923,468.5C 909.238,491.123 910.572,512.79 927,533.5C 950.463,553.975 974.629,554.808 999.5,536C 1015.22,518.969 1019.39,499.469 1012,477.5C 1069.4,420.219 1126.9,363.053 1184.5,306C 1219.17,305.5 1253.83,305.333 1288.5,305.5C 1289.74,540.166 1289.74,774.833 1288.5,1009.5C 1253.83,1009.67 1219.17,1009.5 1184.5,1009C 1126.67,951.833 1068.83,894.667 1011,837.5C 1012.99,829.891 1014.16,822.058 1014.5,814C 1010.95,782.781 993.446,766.281 962,764.5C 932.708,768.125 916.541,784.625 913.5,814C 913.73,835.808 923.397,851.808 942.5,862C 957.031,867.967 971.531,867.8 986,861.5C 986.5,861.833 987,862.167 987.5,862.5C 1041.65,916.487 1095.99,970.32 1150.5,1024C 1156.83,1029.67 1163.17,1035.33 1169.5,1041C 1170.83,1041.67 1172.17,1042.33 1173.5,1043C 1211.83,1043.5 1250.17,1043.67 1288.5,1043.5C 1295.76,1108.52 1278.93,1166.19 1238,1216.5C 1230.96,1223.7 1223.8,1230.7 1216.5,1237.5C 1214.97,1237.43 1213.97,1238.09 1213.5,1239.5C 1188.06,1261.55 1158.73,1276.22 1125.5,1283.5C 1122.22,1283.42 1119.22,1284.09 1116.5,1285.5C 1106.04,1287.07 1095.38,1287.9 1084.5,1288C 947.5,1288.5 810.5,1288.67 673.5,1288.5C 673.167,1209.5 673.5,1130.5 674.5,1051.5C 698.763,1040.32 709.597,1021.32 707,994.5C 702.481,976.956 691.981,964.456 675.5,957C 646.915,948.414 625.081,956.914 610,982.5C 601.556,1005.01 605.723,1024.84 622.5,1042C 627.338,1045.92 632.671,1049.09 638.5,1051.5C 639.5,1130.5 639.833,1209.5 639.5,1288.5C 501.833,1288.5 364.167,1288.5 226.5,1288.5C 217.649,1287.42 208.649,1286.42 199.5,1285.5C 196.781,1284.09 193.781,1283.42 190.5,1283.5C 188.485,1282.08 186.152,1281.41 183.5,1281.5C 166.513,1277.51 150.513,1271.17 135.5,1262.5C 135.027,1261.09 134.027,1260.43 132.5,1260.5C 129.669,1259.92 127.336,1258.59 125.5,1256.5C 125.027,1255.09 124.027,1254.43 122.5,1254.5C 115.262,1250.26 108.596,1245.26 102.5,1239.5C 101.415,1237.41 99.7488,1236.08 97.5,1235.5C 95.1667,1233.83 93.1667,1231.83 91.5,1229.5C 90.5,1227.83 89.1667,1226.5 87.5,1225.5C 84.5,1223.17 81.8333,1220.5 79.5,1217.5C 79.573,1215.97 78.9063,1214.97 77.5,1214.5C 72.7705,1210.1 68.7705,1205.1 65.5,1199.5C 65.573,1197.97 64.9063,1196.97 63.5,1196.5C 46.1955,1172.2 35.1955,1145.2 30.5,1115.5C 30.4681,1110.61 29.8015,1105.94 28.5,1101.5C 27.5499,1082.19 27.2166,1062.86 27.5,1043.5C 63.1682,1043.67 98.8349,1043.5 134.5,1043C 139.773,1042.2 144.773,1040.53 149.5,1038C 208.194,978.972 267.194,920.306 326.5,862C 346.922,869.875 365.922,867.209 383.5,854C 402.054,834.454 405.221,812.621 393,788.5C 379.2,768.693 360.367,761.193 336.5,766C 314.012,774.157 301.678,790.157 299.5,814C 299.841,822.058 301.008,829.891 303,837.5C 245.194,894.306 187.694,951.472 130.5,1009C 95.8349,1009.5 61.1683,1009.67 26.5,1009.5C 26.9724,774.834 27.3058,540.167 27.5,305.5C 61.835,305.333 96.1683,305.5 130.5,306C 187.973,363.473 245.473,420.973 303,478.5C 294.357,506.239 302.191,528.072 326.5,544C 344.326,552.084 361.659,551.084 378.5,541C 399.373,524.009 405.207,502.842 396,477.5C 383.801,455.982 365.301,446.482 340.5,449C 335.497,450.689 330.497,452.023 325.5,453C 265.806,393.639 206.472,333.973 147.5,274C 146.167,273.333 144.833,272.667 143.5,272C 104.835,271.5 66.1681,271.333 27.5,271.5C 27.7259,252.498 28.0592,233.498 28.5,214.5C 29.8063,209.384 30.473,204.051 30.5,198.5C 32.2598,194.453 33.2598,190.12 33.5,185.5C 34.9238,183.485 35.5905,181.152 35.5,178.5C 36.9238,176.485 37.5905,174.152 37.5,171.5C 45.522,145.206 58.522,121.873 76.5,101.5C 78.5869,100.415 79.9202,98.7488 80.5,96.5C 83.1667,93.1667 86.1667,90.1667 89.5,87.5C 94.1053,84.5643 98.1053,80.8976 101.5,76.5C 120.463,59.5076 142.13,46.8409 166.5,38.5C 171.165,37.9431 175.498,36.6098 179.5,34.5C 186.427,33.435 193.094,31.7683 199.5,29.5C 204.414,29.6382 209.081,28.9715 213.5,27.5C 296.825,26.5366 380.159,26.2033 463.5,26.5 Z"/></g>
<g><path style="opacity:1" fill="#e1fc45" d="M 641.5,25.5 C 652.5,25.5 663.5,25.5 674.5,25.5C 674.5,46.8333 674.5,68.1667 674.5,89.5C 674.333,147.501 674.5,205.501 675,263.5C 695.793,271.974 706.96,287.474 708.5,310C 707.63,335.861 694.963,352.861 670.5,361C 643.654,365.825 623.82,356.325 611,332.5C 600.648,301.214 610.148,278.214 639.5,263.5C 640.5,230.507 640.833,197.507 640.5,164.5C 641.499,118.336 641.832,72.003 641.5,25.5 Z"/></g>
<g><path style="opacity:1" fill="#a7bb8d" d="M 674.5,25.5 C 778.335,25.1672 882.001,25.5005 985.5,26.5C 882.167,26.5 778.833,26.5 675.5,26.5C 675.831,47.6733 675.497,68.6733 674.5,89.5C 674.5,68.1667 674.5,46.8333 674.5,25.5 Z"/></g>
<g><path style="opacity:1" fill="#aab7b2" d="M 213.5,27.5 C 209.081,28.9715 204.414,29.6382 199.5,29.5C 203.919,28.0285 208.586,27.3618 213.5,27.5 Z"/></g>
<g><path style="opacity:0.98" fill="#9aaaa4" d="M 199.5,29.5 C 193.094,31.7683 186.427,33.435 179.5,34.5C 185.83,31.9173 192.497,30.2507 199.5,29.5 Z"/></g>
<g><path style="opacity:0.992" fill="#8a9d97" d="M 179.5,34.5 C 175.498,36.6098 171.165,37.9431 166.5,38.5C 170.502,36.3902 174.835,35.0569 179.5,34.5 Z"/></g>
<g><path style="opacity:0.008" fill="#ced6d3" d="M 1214.5,76.5 C 1216.03,76.427 1217.03,77.0937 1217.5,78.5C 1215.97,78.573 1214.97,77.9063 1214.5,76.5 Z"/></g>
<g><path style="opacity:1" fill="#6e857c" d="M 101.5,76.5 C 98.1053,80.8976 94.1053,84.5643 89.5,87.5C 92.8947,83.1024 96.8947,79.4357 101.5,76.5 Z"/></g>
<g><path style="opacity:0.004" fill="#d2d9d6" d="M 1224.5,85.5 C 1226.83,85.8333 1228.17,87.1667 1228.5,89.5C 1226.83,88.5 1225.5,87.1667 1224.5,85.5 Z"/></g>
<g><path style="opacity:1" fill="#c8d984" d="M 463.5,26.5 C 522.664,25.5009 581.998,25.1676 641.5,25.5C 641.832,72.003 641.499,118.336 640.5,164.5C 640.5,118.5 640.5,72.5 640.5,26.5C 581.5,26.5 522.5,26.5 463.5,26.5 Z"/></g>
<g><path style="opacity:0.906" fill="#acb9b4" d="M 1234.5,95.5 C 1236.91,96.9108 1238.58,98.9108 1239.5,101.5C 1237.09,100.089 1235.42,98.0892 1234.5,95.5 Z"/></g>
<g><path style="opacity:0.553" fill="#bec8c4" d="M 80.5,96.5 C 79.9202,98.7488 78.5869,100.415 76.5,101.5C 77.0798,99.2512 78.4131,97.5846 80.5,96.5 Z"/></g>
<g><path style="opacity:0.957" fill="#9daca7" d="M 37.5,171.5 C 37.5905,174.152 36.9238,176.485 35.5,178.5C 35.4095,175.848 36.0762,173.515 37.5,171.5 Z"/></g>
<g><path style="opacity:0.71" fill="#a0afa9" d="M 35.5,178.5 C 35.5905,181.152 34.9238,183.485 33.5,185.5C 33.4095,182.848 34.0762,180.515 35.5,178.5 Z"/></g>
<g><path style="opacity:0.667" fill="#96a6a0" d="M 1280.5,178.5 C 1281.92,180.515 1282.59,182.848 1282.5,185.5C 1281.08,183.485 1280.41,181.152 1280.5,178.5 Z"/></g>
<g><path style="opacity:1" fill="#acb9b4" d="M 33.5,185.5 C 33.2598,190.12 32.2598,194.453 30.5,198.5C 30.7402,193.88 31.7402,189.547 33.5,185.5 Z"/></g>
<g><path style="opacity:1" fill="#a8b6b1" d="M 30.5,198.5 C 30.473,204.051 29.8063,209.384 28.5,214.5C 28.2549,208.916 28.9216,203.583 30.5,198.5 Z"/></g>
<g><path style="opacity:1" fill="#82968f" d="M 1285.5,198.5 C 1286.81,203.616 1287.47,208.949 1287.5,214.5C 1286.04,209.402 1285.38,204.069 1285.5,198.5 Z"/></g>
<g><path style="opacity:1" fill="#e0fb45" d="M 27.5,271.5 C 66.1681,271.333 104.835,271.5 143.5,272C 144.833,272.667 146.167,273.333 147.5,274C 206.472,333.973 265.806,393.639 325.5,453C 330.497,452.023 335.497,450.689 340.5,449C 365.301,446.482 383.801,455.982 396,477.5C 405.207,502.842 399.373,524.009 378.5,541C 361.659,551.084 344.326,552.084 326.5,544C 302.191,528.072 294.357,506.239 303,478.5C 245.473,420.973 187.973,363.473 130.5,306C 96.1683,305.5 61.835,305.333 27.5,305.5C 27.5,294.167 27.5,282.833 27.5,271.5 Z"/></g>
<g><path style="opacity:0.999" fill="#e1fc45" d="M 1288.5,271.5 C 1288.5,282.833 1288.5,294.167 1288.5,305.5C 1253.83,305.333 1219.17,305.5 1184.5,306C 1126.9,363.053 1069.4,420.219 1012,477.5C 1019.39,499.469 1015.22,518.969 999.5,536C 974.629,554.808 950.463,553.975 927,533.5C 910.572,512.79 909.238,491.123 923,468.5C 940.856,447.12 962.523,442.12 988,453.5C 1047.89,392.944 1108.39,333.11 1169.5,274C 1170.83,273.333 1172.17,272.667 1173.5,272C 1211.83,271.5 1250.17,271.333 1288.5,271.5 Z"/></g>
<g><path style="opacity:1" fill="#234638" d="M 651.5,285.5 C 673.989,284.488 684.489,295.155 683,317.5C 678.187,332.95 667.687,339.45 651.5,337C 636.061,332.196 629.561,321.696 632,305.5C 634.682,294.986 641.182,288.319 651.5,285.5 Z"/></g>
<g><path style="opacity:1" fill="#f2bb36" d="M 635.5,415.5 C 719.35,411.526 788.85,440.859 844,503.5C 903.64,580.986 915.307,665.319 879,756.5C 836.632,844.128 766.799,892.295 669.5,901C 581.818,903.571 511.651,870.071 459,800.5C 413.053,732.547 402.053,659.214 426,580.5C 457.407,496.426 516.574,443.259 603.5,421C 614.253,418.825 624.92,416.992 635.5,415.5 Z"/></g>
<g><path style="opacity:1" fill="#234639" d="M 958.5,472.5 C 980.989,471.488 991.489,482.155 990,504.5C 985.187,519.95 974.687,526.45 958.5,524C 943.061,519.196 936.561,508.696 939,492.5C 941.682,481.986 948.182,475.319 958.5,472.5 Z"/></g>
<g><path style="opacity:1" fill="#234539" d="M 341.5,473.5 C 357.161,470.58 368.328,476.247 375,490.5C 378.421,505.149 373.588,515.983 360.5,523C 345.159,528.073 333.659,523.573 326,509.5C 321.069,493.038 326.236,481.038 341.5,473.5 Z"/></g>
<g><path style="opacity:1" fill="#e1fc45" d="M 27.5,1043.5 C 26.5227,1032.25 26.1894,1020.91 26.5,1009.5C 61.1683,1009.67 95.8349,1009.5 130.5,1009C 187.694,951.472 245.194,894.306 303,837.5C 301.008,829.891 299.841,822.058 299.5,814C 301.678,790.157 314.012,774.157 336.5,766C 360.367,761.193 379.2,768.693 393,788.5C 405.221,812.621 402.054,834.454 383.5,854C 365.922,867.209 346.922,869.875 326.5,862C 267.194,920.306 208.194,978.972 149.5,1038C 144.773,1040.53 139.773,1042.2 134.5,1043C 98.8349,1043.5 63.1682,1043.67 27.5,1043.5 Z"/></g>
<g><path style="opacity:0.999" fill="#e1fc45" d="M 1288.5,1009.5 C 1288.5,1020.83 1288.5,1032.17 1288.5,1043.5C 1250.17,1043.67 1211.83,1043.5 1173.5,1043C 1172.17,1042.33 1170.83,1041.67 1169.5,1041C 1163.17,1035.33 1156.83,1029.67 1150.5,1024C 1095.99,970.32 1041.65,916.487 987.5,862.5C 987,862.167 986.5,861.833 986,861.5C 971.531,867.8 957.031,867.967 942.5,862C 923.397,851.808 913.73,835.808 913.5,814C 916.541,784.625 932.708,768.125 962,764.5C 993.446,766.281 1010.95,782.781 1014.5,814C 1014.16,822.058 1012.99,829.891 1011,837.5C 1068.83,894.667 1126.67,951.833 1184.5,1009C 1219.17,1009.5 1253.83,1009.67 1288.5,1009.5 Z"/></g>
<g><path style="opacity:1" fill="#244639" d="M 345.5,788.5 C 363.157,788.493 373.49,797.16 376.5,814.5C 374.93,831.069 365.93,840.402 349.5,842.5C 333.633,839.963 324.967,830.63 323.5,814.5C 325.476,801.198 332.809,792.531 345.5,788.5 Z"/></g>
<g><path style="opacity:1" fill="#234639" d="M 955.5,789.5 C 975.184,786.827 986.85,795.16 990.5,814.5C 987.878,835.29 976.211,844.123 955.5,841C 940.286,833.075 935.119,820.908 940,804.5C 943.741,797.924 948.907,792.924 955.5,789.5 Z"/></g>
<g><path style="opacity:0.999" fill="#e2fd45" d="M 673.5,1288.5 C 662.167,1288.5 650.833,1288.5 639.5,1288.5C 639.833,1209.5 639.5,1130.5 638.5,1051.5C 632.671,1049.09 627.338,1045.92 622.5,1042C 605.723,1024.84 601.556,1005.01 610,982.5C 625.081,956.914 646.915,948.414 675.5,957C 691.981,964.456 702.481,976.956 707,994.5C 709.597,1021.32 698.763,1040.32 674.5,1051.5C 673.5,1130.5 673.167,1209.5 673.5,1288.5 Z"/></g>
<g><path style="opacity:1" fill="#244639" d="M 651.5,977.5 C 669.72,977.067 680.387,985.733 683.5,1003.5C 681.402,1019.93 672.069,1028.93 655.5,1030.5C 635.961,1026.75 627.794,1015.08 631,995.5C 635.256,986.402 642.089,980.402 651.5,977.5 Z"/></g>
<g><path style="opacity:0.033" fill="#cdd5d2" d="M 28.5,1101.5 C 29.8015,1105.94 30.4681,1110.61 30.5,1115.5C 29.0285,1111.08 28.3618,1106.41 28.5,1101.5 Z"/></g>
<g><path style="opacity:0.004" fill="#d8dedc" d="M 63.5,1196.5 C 64.9063,1196.97 65.573,1197.97 65.5,1199.5C 64.0937,1199.03 63.427,1198.03 63.5,1196.5 Z"/></g>
<g><path style="opacity:0.008" fill="#d3d9d7" d="M 77.5,1214.5 C 78.9063,1214.97 79.573,1215.97 79.5,1217.5C 78.0937,1217.03 77.427,1216.03 77.5,1214.5 Z"/></g>
<g><path style="opacity:0.004" fill="#d8dedc" d="M 87.5,1225.5 C 89.1667,1226.5 90.5,1227.83 91.5,1229.5C 89.1667,1229.17 87.8333,1227.83 87.5,1225.5 Z"/></g>
<g><path style="opacity:0.824" fill="#b6c4be" d="M 97.5,1235.5 C 99.7488,1236.08 101.415,1237.41 102.5,1239.5C 100.251,1238.92 98.5846,1237.59 97.5,1235.5 Z"/></g>
<g><path style="opacity:0.004" fill="#e1e6e4" d="M 1216.5,1237.5 C 1216.03,1238.91 1215.03,1239.57 1213.5,1239.5C 1213.97,1238.09 1214.97,1237.43 1216.5,1237.5 Z"/></g>
<g><path style="opacity:0.216" fill="#c1cbc9" d="M 122.5,1254.5 C 124.027,1254.43 125.027,1255.09 125.5,1256.5C 123.973,1256.57 122.973,1255.91 122.5,1254.5 Z"/></g>
<g><path style="opacity:0.216" fill="#c2cbc9" d="M 132.5,1260.5 C 134.027,1260.43 135.027,1261.09 135.5,1262.5C 133.973,1262.57 132.973,1261.91 132.5,1260.5 Z"/></g>
<g><path style="opacity:0.604" fill="#a0afa9" d="M 183.5,1281.5 C 186.152,1281.41 188.485,1282.08 190.5,1283.5C 187.848,1283.59 185.515,1282.92 183.5,1281.5 Z"/></g>
<g><path style="opacity:0.761" fill="#bec8c4" d="M 190.5,1283.5 C 193.781,1283.42 196.781,1284.09 199.5,1285.5C 196.219,1285.58 193.219,1284.91 190.5,1283.5 Z"/></g>
<g><path style="opacity:0.096" fill="#e0e4e3" d="M 1125.5,1283.5 C 1122.78,1284.91 1119.78,1285.58 1116.5,1285.5C 1119.22,1284.09 1122.22,1283.42 1125.5,1283.5 Z"/></g>
<g><path style="opacity:1" fill="#bbc6c2" d="M 199.5,1285.5 C 208.649,1286.42 217.649,1287.42 226.5,1288.5C 217.178,1289.1 208.178,1288.1 199.5,1285.5 Z"/></g>
</svg>
